<?xml version="1.0" encoding="UTF-8"?>
<svg id="Layer_2" data-name="Layer 2" xmlns="http://www.w3.org/2000/svg" xmlns:xlink="http://www.w3.org/1999/xlink" viewBox="0 0 1000 1000">
  <defs>
    <style>
      .cls-1 {
        fill: url(#Gradiente_sem_nome_8);
      }
    </style>
    <linearGradient id="Gradiente_sem_nome_8" data-name="Gradiente sem nome 8" x1="277.44" y1="500" x2="722.56" y2="500" gradientUnits="userSpaceOnUse">
      <stop offset=".17" stop-color="#1944d2"/>
      <stop offset="1" stop-color="#2d76f4"/>
    </linearGradient>
  </defs>
  <g id="novo_1" data-name="novo 1">
    <g id="logo" transform="scale(1.3) translate(85, 85)">
      <path class="cls-1" d="M277.45,576.27c-.04-95.92.04-286.45.06-319.61,0-2.76,2.24-4.98,5-4.98h6.66c2.76,0,5.01,2.24,5,5.01l-.02,205.11c0,6.06,8.76,6.91,9.92.96l36.71-207.02c.46-2.35,2.52-4.05,4.91-4.05h33.92c3.13,0,5.49,2.83,4.92,5.91l-37.72,203.54c-1.07,5.82,7.06,8.35,9.49,2.95l92.67-209.45c.81-1.8,2.59-2.95,4.57-2.95h61.58c3.61,0,6.04,3.71,4.58,7.02l-89.03,202.25c-2.35,5.34,4.76,9.72,8.45,5.2,48.9-60.06,158.7-194.98,172.56-212.57.95-1.21,2.39-1.9,3.93-1.9h101.93c4.21,0,6.54,4.87,3.9,8.15l-197.18,244.59c-1.51,1.88-1.47,4.57.1,6.4l196.56,228.95c2.79,3.25.48,8.27-3.8,8.27h-102.28c-1.44,0-2.81-.62-3.76-1.7l-171.53-194.67c-3.83-4.35-10.75.2-8.28,5.44l86.7,183.78c1.57,3.32-.86,7.14-4.53,7.14h-62.36c-.55,0-66.68-135.18-96.92-197.49-2.55-5.25-10.49-2.63-9.41,3.1,11.95,63.31,39.62,194.38,39.56,194.38h-43.67c-.18,0-22.94-132.01-36.5-197.49-1.22-5.9-9.9-4.99-9.9,1.03l-.07,191.71c0,2.76-2.24,5-5,5h-6.66c-2.76,0-5-2.24-5-5l-.06-167.03Z"/>
    </g>
  </g>
</svg>