<?xml version="1.0" encoding="UTF-8"?>
<svg id="Layer_2" data-name="Layer 2" xmlns="http://www.w3.org/2000/svg" viewBox="0 0 1731.28 476.4">
  <defs>
    <style>
      .cls-1 {
        fill: #00040a;
      }

      .cls-2 {
        fill: #2d76f4;
      }
    </style>
  </defs>
  <g id="novo_1" data-name="novo 1">
    <g id="logo">
      <g id="koplai">
        <g>
          <path class="cls-1" d="M533.77,382.66V89.67h46.41v158.89l-12.19-4.72,132.54-154.17h57.81l-117.2,137.26,2.36-33.04,119.56,188.78h-54.67l-85.74-134.11-42.47,49.56v84.56h-46.41Z"/>
          <path class="cls-1" d="M864.13,387.39c-20.45,0-39.13-4.85-56.04-14.55-16.91-9.7-30.35-22.94-40.31-39.72-9.97-16.78-14.95-35.79-14.95-57.03s4.98-40.57,14.95-57.22c9.96-16.65,23.33-29.75,40.11-39.33,16.78-9.57,35.53-14.36,56.24-14.36s39.78,4.79,56.44,14.36c16.65,9.57,29.89,22.68,39.72,39.33,9.83,16.66,14.75,35.73,14.75,57.22s-4.98,40.64-14.94,57.42c-9.97,16.78-23.34,29.96-40.12,39.52-16.78,9.57-35.4,14.36-55.85,14.36ZM864.13,346.09c12.59,0,23.73-3.01,33.43-9.05,9.7-6.03,17.37-14.36,23.01-24.97,5.63-10.62,8.46-22.61,8.46-35.99s-2.82-25.3-8.46-35.79c-5.64-10.48-13.31-18.74-23.01-24.78-9.7-6.03-20.84-9.05-33.43-9.05s-23.4,3.02-33.23,9.05c-9.83,6.03-17.57,14.29-23.21,24.78-5.64,10.49-8.46,22.42-8.46,35.79s2.81,25.37,8.46,35.99c5.63,10.62,13.37,18.94,23.21,24.97,9.83,6.04,20.9,9.05,33.23,9.05Z"/>
          <path class="cls-1" d="M994.31,461.32V169.9h42.47v44.05l-5.11-10.23c7.87-12.06,18.35-21.5,31.46-28.32,13.11-6.81,28.05-10.23,44.84-10.23,20.18,0,38.35,4.86,54.47,14.55,16.13,9.7,28.84,22.95,38.15,39.72,9.31,16.78,13.96,35.66,13.96,56.63s-4.66,39.86-13.96,56.63c-9.31,16.78-21.96,30.09-37.95,39.92-16,9.83-34.22,14.75-54.67,14.75-16.52,0-31.53-3.41-45.03-10.23-13.51-6.81-23.93-16.65-31.27-29.5l7.08-8.26v121.92h-44.44ZM1103.64,346.09c12.58,0,23.73-3.01,33.43-9.05,9.7-6.03,17.37-14.36,23.01-24.97,5.63-10.62,8.46-22.61,8.46-35.99s-2.82-25.3-8.46-35.79c-5.64-10.48-13.31-18.74-23.01-24.78-9.7-6.03-20.84-9.05-33.43-9.05s-23.4,3.02-33.23,9.05c-9.83,6.03-17.57,14.29-23.21,24.78-5.64,10.49-8.46,22.42-8.46,35.79s2.81,25.37,8.46,35.99c5.63,10.62,13.37,18.94,23.21,24.97,9.83,6.04,20.9,9.05,33.23,9.05Z"/>
          <path class="cls-1" d="M1233.82,382.66V84.95h44.44v297.72h-44.44Z"/>
          <path class="cls-1" d="M1369.9,387.39c-14.42,0-27.08-2.56-37.95-7.67-10.89-5.11-19.34-12.19-25.37-21.24-6.03-9.05-9.04-19.73-9.04-32.05,0-11.53,2.56-21.89,7.67-31.07,5.11-9.18,13.04-16.91,23.8-23.21,10.75-6.29,24.25-10.75,40.51-13.37l73.94-12.19v35l-65.29,11.41c-11.8,2.1-20.45,5.84-25.96,11.21-5.51,5.38-8.26,12.26-8.26,20.65s3.08,14.75,9.24,19.86c6.16,5.11,14.09,7.67,23.79,7.67,12.06,0,22.61-2.62,31.66-7.86,9.04-5.24,16.06-12.25,21.04-21.04,4.98-8.78,7.47-18.55,7.47-29.3v-54.67c0-10.48-3.87-19.08-11.6-25.76-7.74-6.69-18.03-10.03-30.88-10.03-11.8,0-22.09,3.09-30.87,9.24-8.79,6.16-15.28,14.1-19.47,23.79l-36.97-18.48c3.93-10.48,10.36-19.73,19.27-27.73,8.91-8,19.33-14.22,31.27-18.68,11.93-4.46,24.58-6.69,37.95-6.69,16.78,0,31.66,3.15,44.64,9.44s23.07,15.01,30.28,26.15c7.21,11.15,10.81,24.06,10.81,38.74v143.16h-42.47v-38.54l9.05,1.18c-4.99,8.65-11.34,16.13-19.08,22.42-7.74,6.29-16.52,11.15-26.35,14.55-9.83,3.41-20.78,5.11-32.84,5.11Z"/>
          <path class="cls-1" d="M1509.51,140.79v-51.13h44.44v51.13h-44.44ZM1509.51,382.66v-212.77h44.44v212.77h-44.44Z"/>
        </g>
      </g>
      <g id="ai">
        <g>
          <path class="cls-1" d="M1608.36,184.3l34.62-83.57h11.1l34.39,83.57h-10.03l-10.51-26.26h-39.4l-10.62,26.26h-9.55ZM1631.76,150.15h32.95l-16.47-40.95-16.48,40.95Z"/>
          <path class="cls-1" d="M1692.28,184.3v-83.57h9.19v83.57h-9.19Z"/>
        </g>
      </g>
      <path class="cls-2" d="M22.07,302.72c-.04-84.65.04-252.79.05-282.05,0-2.44,1.98-4.39,4.42-4.39h5.88c2.44,0,4.42,1.98,4.42,4.42v181c-.01,5.35,7.71,6.09,8.74.85L77.97,19.86c.4-2.07,2.22-3.57,4.34-3.57h29.94c2.76,0,4.84,2.5,4.34,5.21l-33.28,179.62c-.94,5.13,6.23,7.37,8.37,2.61L173.45,18.89c.71-1.59,2.29-2.61,4.03-2.61h54.35c3.19,0,5.33,3.28,4.04,6.2l-78.56,178.49c-2.07,4.71,4.2,8.58,7.45,4.59,43.16-53,140.05-172.06,152.28-187.59.84-1.06,2.11-1.68,3.46-1.68h89.95c3.71,0,5.77,4.3,3.44,7.19l-174.01,215.85c-1.34,1.66-1.3,4.03.09,5.65l173.46,202.04c2.46,2.86.42,7.29-3.35,7.29h-90.26c-1.27,0-2.48-.55-3.31-1.5l-151.37-171.79c-3.38-3.84-9.49.18-7.31,4.8l76.51,162.18c1.38,2.93-.76,6.3-3.99,6.3h-55.03c-.48,0-58.85-119.3-85.53-174.28-2.25-4.63-9.26-2.32-8.3,2.74,10.55,55.87,34.96,171.54,34.91,171.54h-38.53c-.16,0-20.24-116.5-32.21-174.28-1.08-5.2-8.74-4.41-8.74.91l-.06,169.18c0,2.44-1.98,4.41-4.42,4.41h-5.88c-2.44,0-4.42-1.98-4.42-4.42l-.05-147.4Z"/>
    </g>
  </g>
</svg>